<svg width="73" height="26" viewBox="0 0 73 26" fill="none" xmlns="http://www.w3.org/2000/svg">
<path d="M4.70312 8.34473H2.18066L2.16699 7.28516H4.45703C4.83529 7.28516 5.16569 7.22135 5.44824 7.09375C5.73079 6.96615 5.94954 6.78385 6.10449 6.54688C6.264 6.30534 6.34375 6.01823 6.34375 5.68555C6.34375 5.32096 6.27311 5.02474 6.13184 4.79688C5.99512 4.56445 5.7832 4.39583 5.49609 4.29102C5.21354 4.18164 4.85352 4.12695 4.41602 4.12695H2.47461V13H1.15527V3.04688H4.41602C4.92643 3.04688 5.38216 3.09928 5.7832 3.2041C6.18424 3.30436 6.52376 3.46387 6.80176 3.68262C7.08431 3.89681 7.2985 4.17025 7.44434 4.50293C7.59017 4.83561 7.66309 5.23438 7.66309 5.69922C7.66309 6.10938 7.55827 6.48079 7.34863 6.81348C7.139 7.1416 6.84733 7.41048 6.47363 7.62012C6.10449 7.82975 5.67155 7.96419 5.1748 8.02344L4.70312 8.34473ZM4.6416 13H1.66113L2.40625 11.9268H4.6416C5.06087 11.9268 5.41634 11.8538 5.70801 11.708C6.00423 11.5622 6.22982 11.3571 6.38477 11.0928C6.53971 10.8239 6.61719 10.5072 6.61719 10.1426C6.61719 9.77344 6.55111 9.45443 6.41895 9.18555C6.28678 8.91667 6.07943 8.70931 5.79688 8.56348C5.51432 8.41764 5.14974 8.34473 4.70312 8.34473H2.82324L2.83691 7.28516H5.40723L5.6875 7.66797C6.16602 7.70898 6.57161 7.8457 6.9043 8.07812C7.23698 8.30599 7.48991 8.59766 7.66309 8.95312C7.84082 9.30859 7.92969 9.70052 7.92969 10.1289C7.92969 10.7487 7.79297 11.2728 7.51953 11.7012C7.25065 12.125 6.87012 12.4486 6.37793 12.6719C5.88574 12.8906 5.30697 13 4.6416 13ZM17.0723 3.04688H18.3848V9.78027C18.3848 10.5277 18.2184 11.1497 17.8857 11.6465C17.5531 12.1432 17.111 12.5169 16.5596 12.7676C16.0127 13.0137 15.418 13.1367 14.7754 13.1367C14.1009 13.1367 13.4902 13.0137 12.9434 12.7676C12.401 12.5169 11.9704 12.1432 11.6514 11.6465C11.3369 11.1497 11.1797 10.5277 11.1797 9.78027V3.04688H12.4854V9.78027C12.4854 10.2998 12.5811 10.7282 12.7725 11.0654C12.9639 11.4027 13.2305 11.6533 13.5723 11.8174C13.9186 11.9814 14.3197 12.0635 14.7754 12.0635C15.2357 12.0635 15.6367 11.9814 15.9785 11.8174C16.3249 11.6533 16.5938 11.4027 16.7852 11.0654C16.9766 10.7282 17.0723 10.2998 17.0723 9.78027V3.04688ZM22.4141 3.04688L24.998 8.04395L27.5889 3.04688H29.0859L25.6543 9.28125V13H24.335V9.28125L20.9033 3.04688H22.4141ZM44.4932 3.04688V13H43.167L38.1562 5.32324V13H36.8369V3.04688H38.1562L43.1875 10.7441V3.04688H44.4932ZM55.9941 7.70898V8.33789C55.9941 9.08529 55.9007 9.75521 55.7139 10.3477C55.527 10.9401 55.2581 11.4437 54.9072 11.8584C54.5563 12.2731 54.1348 12.5898 53.6426 12.8086C53.1549 13.0273 52.6081 13.1367 52.002 13.1367C51.4141 13.1367 50.874 13.0273 50.3818 12.8086C49.8942 12.5898 49.4704 12.2731 49.1104 11.8584C48.7549 11.4437 48.4792 10.9401 48.2832 10.3477C48.0872 9.75521 47.9893 9.08529 47.9893 8.33789V7.70898C47.9893 6.96159 48.085 6.29395 48.2764 5.70605C48.4723 5.11361 48.748 4.61003 49.1035 4.19531C49.459 3.77604 49.8805 3.45703 50.3682 3.23828C50.8604 3.01953 51.4004 2.91016 51.9883 2.91016C52.5944 2.91016 53.1413 3.01953 53.6289 3.23828C54.1211 3.45703 54.5426 3.77604 54.8936 4.19531C55.249 4.61003 55.5202 5.11361 55.707 5.70605C55.8984 6.29395 55.9941 6.96159 55.9941 7.70898ZM54.6885 8.33789V7.69531C54.6885 7.10286 54.627 6.57878 54.5039 6.12305C54.3854 5.66732 54.21 5.28451 53.9775 4.97461C53.7451 4.66471 53.4603 4.43001 53.123 4.27051C52.7904 4.111 52.4121 4.03125 51.9883 4.03125C51.5781 4.03125 51.2067 4.111 50.874 4.27051C50.5459 4.43001 50.2633 4.66471 50.0264 4.97461C49.7939 5.28451 49.6139 5.66732 49.4863 6.12305C49.3587 6.57878 49.2949 7.10286 49.2949 7.69531V8.33789C49.2949 8.9349 49.3587 9.46354 49.4863 9.92383C49.6139 10.3796 49.7962 10.7646 50.0332 11.0791C50.2747 11.389 50.5596 11.6237 50.8877 11.7832C51.2204 11.9427 51.5918 12.0225 52.002 12.0225C52.4303 12.0225 52.8109 11.9427 53.1436 11.7832C53.4762 11.6237 53.7565 11.389 53.9844 11.0791C54.2168 10.7646 54.3923 10.3796 54.5107 9.92383C54.6292 9.46354 54.6885 8.9349 54.6885 8.33789ZM62.0879 9.99219L64.0635 3.04688H65.0205L64.4668 5.74707L62.3408 13H61.3906L62.0879 9.99219ZM60.0439 3.04688L61.6162 9.85547L62.0879 13H61.1445L58.7314 3.04688H60.0439ZM67.5771 9.84863L69.1152 3.04688H70.4346L68.0283 13H67.085L67.5771 9.84863ZM65.1641 3.04688L67.085 9.99219L67.7822 13H66.832L64.7812 5.74707L64.2207 3.04688H65.1641Z" fill="white"/>
</svg>
